PathFileType	4	(X/Y/Z)	RBDS04\RBDS04runT45.trc
DataRate	CameraRate	NumFrames	NumMarkers	Units	OrigDataRate	OrigDataStartFrame	OrigNumFrames
150.000000	150.000000	4	33	mm	150.000000	3375	4500
Frame#	Time	L.ASIS			L.Heel.Bottom			L.Heel.Lateral			L.Heel.Top			L.Iliac.Crest			L.MT1			L.MT5			L.PSIS			L.Shank.Bottom.Lateral			L.Shank.Bottom.Medial			L.Shank.Top.Lateral			L.Shank.Top.Medial			L.Thigh.Bottom.Lateral			L.Thigh.Bottom.Medial			L.Thigh.Top.Lateral			L.Thigh.Top.Medial			R.ASIS			R.ASY			R.Heel.Bottom			R.Heel.Lateral			R.Heel.Top			R.Iliac.Crest			R.MT1			R.MT5			R.PSIS			R.Shank.Bottom.Lateral			R.Shank.Bottom.Medial			R.Shank.Top.Lateral			R.Shank.Top.Medial			R.Thigh.Bottom.Lateral			R.Thigh.Bottom.Medial			R.Thigh.Top.Lateral			R.Thigh.Top.Medial			
		X1	Y1	Z1	X2	Y2	Z2	X3	Y3	Z3	X4	Y4	Z4	X5	Y5	Z5	X6	Y6	Z6	X7	Y7	Z7	X8	Y8	Z8	X9	Y9	Z9	X10	Y10	Z10	X11	Y11	Z11	X12	Y12	Z12	X13	Y13	Z13	X14	Y14	Z14	X15	Y15	Z15	X16	Y16	Z16	X17	Y17	Z17	X18	Y18	Z18	X19	Y19	Z19	X20	Y20	Z20	X21	Y21	Z21	X22	Y22	Z22	X23	Y23	Z23	X24	Y24	Z24	X25	Y25	Z25	X26	Y26	Z26	X27	Y27	Z27	X28	Y28	Z28	X29	Y29	Z29	X30	Y30	Z30	X31	Y31	Z31	X32	Y32	Z32	X33	Y33	Z33	

3376	22.5	2253.171326951782	964.655763149314	884.3278361674892	1537.844622377336	444.5156242682483	965.678277507515	1545.853079482997	406.2471574876718	925.9887785352397	1582.626897839448	433.207179736401	958.1006510283071	2214.834705687598	1049.816799342302	851.6860301606442	1560.364558543007	237.5661635846631	1026.292804320961	1524.923403188609	254.0157993554028	931.5787260378471	2101.043144344547	1023.840628892543	945.9042293208181	1666.221508474308	408.7066275477383	905.2772305905698	1646.601797086414	445.9428629521397	933.988946820675	1732.557526184373	452.7207378987752	888.250770293851	1715.437052390181	492.9849220700716	918.7994340804163	2024.659669144476	647.1211615169483	845.3426600998279	1969.528932741925	675.2849036101305	884.3913979334131	2057.223443363568	750.1786534282834	822.3721776154798	2005.861629924507	776.7950732579025	861.166401366707	2257.398414713874	973.9948409119413	1068.605436637958	-2280241060.679986	-6329834891.973131	-20193583717.26885	2402.046566228558	85.60469237573207	1033.017501175424	2430.478950364653	101.2720312775629	1075.757495110149	2401.805308009147	130.4252464239692	1041.030298837948	2202.284306413365	1035.146806786069	1125.53729358999	2607.748563420812	145.0130178431949	1008.929261987094	2582.633990677348	115.767998637779	1100.033709868031	2099.941899840544	1023.197492515606	1033.307412577988	2428.512196557042	234.3702246020673	1097.627531228977	2392.743014143291	232.790498719848	1057.183575203018	2402.610397029056	309.0326195932935	1115.155406079673	2368.930539977978	307.3079282639833	1073.257934005093	2330.589301360017	643.1587623418449	1141.611786888908	2281.099135924852	612.5596486320484	1096.999435381022	2262.251940559222	728.7601561176758	1156.093929288463	2213.440902082325	697.4075234734311	1115.849849144538	
3377	22.50666666666667	2254.515009274023	964.7517636257854	884.0807663669915	1540.119161597184	463.3582312437068	967.6143655750478	1545.786831923213	424.8134007862743	927.854278310178	1584.087566629422	449.8258493894469	959.4635024335549	2215.081289761766	1050.005278515503	851.5130892401878	1552.771742099325	255.7207386311095	1027.466560852311	1517.282686828153	274.2756421985664	933.2403160346049	2101.966134011589	1023.139226942247	945.3784043265363	1665.980420218352	421.0484215971803	906.3169111764439	1648.602597321056	459.3336803256192	935.2300580085697	1734.540345016058	461.4821977158218	888.9626818149096	1719.879727344818	502.5574804653593	919.7074029504647	2030.35106553409	643.8309314059533	844.5990270851598	1974.969193793975	670.9037174496525	884.0447745676996	2061.088798327112	747.5558651423254	822.1327781799922	2009.441063723522	773.1708265793928	861.2241814720016	2258.18671027044	973.7089304005792	1068.582607592592	-2282647107.346832	-6336508705.692632	-20214883080.49706	2416.857465579668	79.12436565359853	1031.745271544438	2445.467794098347	95.14389771954998	1074.353230686127	2414.645062896901	123.7246171679536	1040.785602077504	2202.695339574349	1034.772912952089	1125.152945087617	2619.990551744611	148.2243736715819	1006.337137628971	2597.462497048066	115.6030449817946	1097.061474844043	2100.71224656115	1022.418970754697	1032.879783090814	2436.475599631325	229.2513133567681	1097.226443726557	2400.654156955589	226.0653866763212	1056.893351559642	2406.797332957595	302.5761320937161	1115.025664422428	2373.033988317952	299.4064512596622	1073.207930051506	2323.380217950063	636.4238381867146	1142.649308196546	2274.547152109074	608.279570027926	1095.679706047914	2257.384483098225	723.9481255054085	1156.642154498412	2208.678215386269	694.706500544366	1114.6486272396	
3378	22.51333333333334	2255.832837813624	964.3707706474321	883.8600586590167	1544.826060311968	481.8011521589479	970.0882530707783	1547.984160317622	443.3449075051915	930.0145716998745	1587.842290231348	465.974067284541	961.214540461462	2215.320410905028	1049.649300336821	851.3072605005052	1546.785317247691	273.4869916388089	1027.915282263538	1511.447640235742	294.8792753556498	934.3853084154581	2102.817781852418	1021.826428625157	944.819628024568	1667.393620771181	432.951909200855	907.3196379964013	1652.314702733888	472.0859056126823	936.4962661684697	1737.94296652315	469.6897285845156	889.6744091583845	1725.810665343077	511.3861699769951	920.6621687702304	2036.254416244765	639.9750766196962	843.8256167000461	1980.808281044479	665.8383639878189	883.9642818444579	2065.036690774883	744.3923523879149	821.9755731175497	2013.275921647383	768.8996532467467	861.6183399157162	2258.927598068206	973.131862184719	1068.599750802107	-2285054845.931357	-6343187208.752715	-20236197415.58827	2427.847327348749	73.74505523644314	1029.948840296694	2456.559471161434	89.6478123653368	1072.607107019916	2424.143850014595	118.0349190653611	1040.120584053895	2202.977309496755	1034.205586897969	1124.715011858395	2628.771008135384	150.1440290586778	1004.331081393689	2608.234669679401	114.2858724612203	1094.401628029721	2101.390006351282	1021.11341524492	1032.391739751137	2441.926448563651	224.5248896371821	1096.770304525253	2406.189107010286	220.034786545396	1056.425853823097	2409.178161545591	296.6650977578201	1114.701605490586	2375.473946369149	292.3197354179439	1072.847726148591	2316.66218850236	630.0115980091475	1143.444626973621	2268.535404713769	604.0953440427307	1094.352360021527	2252.795575873431	719.2547413682071	1157.008336047268	2204.325289889141	691.9408014917124	1113.425705699797	
3379	22.52	2257.12615752532	963.4864861018202	883.6998719761597	1551.914509561225	499.6228764893972	973.031569182083	1552.470355196511	461.634318560012	932.4158296767266	1593.845454673531	481.4892007602709	963.3060474215737	2215.582985713154	1048.704510257932	851.0775860773039	1542.534311988214	290.7675649619497	1027.646595095803	1507.619817258536	315.6530489944232	935.0133543600662	2103.590201890372	1019.864932125689	944.2264507985547	1670.501982952423	444.3230317064236	908.2607146529755	1657.743836402183	484.1133668674156	937.7306176090591	1742.7996434172	477.2690817910444	890.3598734622021	1733.221875228196	519.4063126729715	921.6099216014896	2042.378086050628	635.5604719771982	843.0198427503275	1987.03944179172	660.1233859743191	884.1001638293039	2069.11517479756	740.6652733313699	821.8700025717637	2017.381778011513	763.9896840242767	862.2572185120051	2259.600303343127	972.2168490106139	1068.697342369687	-2287464277.028213	-6349870402.800283	-20257526727.80271	2434.769700368733	69.15586750113972	1027.610457779268	2463.471579217136	84.47544269834907	1070.51065644308	2430.101225568283	113.0937589085931	1038.96859782718	2203.103354584533	1033.365086225779	1124.263969998552	2634.066504273957	150.2576496874723	1002.929912993359	2614.769542004619	111.4056472743189	1092.115927618926	2101.951213314256	1019.231011800442	1031.840051326778	2444.790208615644	219.9252724192214	1096.239914292591	2409.245552984579	214.4727280403235	1055.761674484233	2409.736089850906	291.125455652341	1114.18230145459	2376.211270690063	285.9136863036303	1072.181089858869	2310.667767522483	624.0247781747669	1143.91546744874	2263.205452166112	600.0068522065965	1093.070961602749	2248.651093143553	714.7390413934985	1157.125558324687	2200.486990686938	689.0915284350368	1112.212533795386	
